<svg width="21" height="24" viewBox="0 0 21 24" fill="none" xmlns="http://www.w3.org/2000/svg">
<path d="M0.267579 17.1028V5.18295C0.267579 4.07462 0.555329 3.19088 1.13083 2.53173C1.70633 1.87258 2.46418 1.37069 3.40438 1.02606C4.34458 0.681435 5.41653 0.451403 6.62023 0.335968C7.82392 0.220534 9.05229 0.163235 10.3053 0.164072C11.6855 0.164072 12.9875 0.221789 14.2113 0.337223C15.4351 0.452657 16.5016 0.682689 17.4108 1.02732C18.3201 1.37195 19.0361 1.87384 19.5589 2.53298C20.0817 3.19213 20.3431 4.07545 20.3431 5.18295V17.1028C20.3431 18.3366 19.9198 19.3772 19.0733 20.2245C18.2268 21.0719 17.1862 21.4952 15.9516 21.4943L17.8337 23.3764V24.0038H15.3242L12.8148 21.4943H7.7959L5.28646 24.0038H2.77702V23.3764L4.6591 21.4943C3.42529 21.4943 2.38471 21.0711 1.53736 20.2245C0.690002 19.378 0.266743 18.3374 0.267579 17.1028ZM2.77702 10.2018H9.05062V6.43767H2.77702V10.2018ZM11.5601 10.2018H17.8337V6.43767H11.5601V10.2018ZM5.91382 17.7302C6.45753 17.7302 6.90714 17.5524 7.26264 17.1969C7.61815 16.8414 7.7959 16.3918 7.7959 15.8481C7.7959 15.3044 7.61815 14.8548 7.26264 14.4993C6.90714 14.1437 6.45753 13.966 5.91382 13.966C5.37011 13.966 4.9205 14.1437 4.565 14.4993C4.20949 14.8548 4.03174 15.3044 4.03174 15.8481C4.03174 16.3918 4.20949 16.8414 4.565 17.1969C4.9205 17.5524 5.37011 17.7302 5.91382 17.7302ZM14.6969 17.7302C15.2406 17.7302 15.6902 17.5524 16.0457 17.1969C16.4012 16.8414 16.5789 16.3918 16.5789 15.8481C16.5789 15.3044 16.4012 14.8548 16.0457 14.4993C15.6902 14.1437 15.2406 13.966 14.6969 13.966C14.1531 13.966 13.7035 14.1437 13.348 14.4993C12.9925 14.8548 12.8148 15.3044 12.8148 15.8481C12.8148 16.3918 12.9925 16.8414 13.348 17.1969C13.7035 17.5524 14.1531 17.7302 14.6969 17.7302Z" fill="white"/>
</svg>
